<?xml version="1.0" encoding="UTF-8"?>
<svg id="Layer_1" data-name="Layer 1" xmlns="http://www.w3.org/2000/svg" viewBox="0 0 100 100">
  <circle cx="50" cy="50" r="50" style="fill: #f5e200;"/>
  <path id="path12604" d="M49.72,20.84c-3.78,.03-7.7,1.02-10.76,3.42-2.3,1.79-4.1,4.17-5.24,6.83,0,0,0,.01,0,.02-1.08,2.74-.98,5.65-.84,8.35,0,0,0,0,0,0,.09,1.9,.3,3.73,.12,5.48-.01,.07-.01,.08-.02,.13-.85,.15-1.78,.1-2.7-.08h-.01c-.63-.11-1.3-.36-2.07-.58-.01,0-.03,0-.04,0-.74-.17-1.46,.05-2.02,.45,0,0-.02,0-.02,.01-.01,0-.02,.02-.03,.02-.45,.3-1.07,.79-1.11,1.66,0,.06,0,.11,.01,.17,.1,.51,.41,.88,.69,1.12,.28,.24,.55,.4,.71,.53,.01,.01,.03,.02,.04,.03,1.38,.92,2.9,1.32,4.23,1.83,0,0,0,0,0,0,.92,.4,1.72,1.03,1.9,1.82,.23,1-.2,2.14-.75,3.25,0,0,0,0,0,0-1.49,2.94-3.71,5.5-6.44,7.37-1.43,.98-3.04,1.7-4.72,2.15-.02,0-.05,.02-.07,.02-.35,.13-1.16,.21-1.68,.99-.04,.05-.07,.11-.09,.17-.17,.5,.02,1.03,.27,1.33,.23,.28,.49,.44,.72,.56,.01,0,.02,.01,.03,.02,1.42,.81,2.96,1.16,4.38,1.52,0,0,.01,0,.02,0,1.02,.23,1.96,.35,2.72,.68,.04,.06,.11,.32,.29,.75,.25,.77,.36,1.69,.66,2.65,.08,.27,.31,.48,.59,.54,.64,.14,1-.08,1.05-.09,.03,0,.05,0,.08,0,2.36-.41,4.72-.77,6.89-.23,0,0,0,0,0,0,2.27,.59,4.25,2.16,6.48,3.5,0,0,0,0,0,0h0c1.48,.92,3.19,1.83,5.16,1.9h0s.01,0,.02,0c1.49,.08,2.95-.01,4.38-.11h.02c1.22-.12,2.41-.52,3.45-1.18,.01,0,.03-.02,.04-.02,2.34-1.33,4.42-2.93,6.7-3.93,0,0,0,0,0,0,.74-.27,1.66-.25,2.69-.32,0,0,.02,0,.03,0,1.89-.06,3.78,.04,5.65,.29,.06,0,.13,0,.2,0,.25-.03,.52-.19,.65-.36,.13-.17,.17-.3,.2-.4,.05-.19,.1-.28,.01-.13,.03-.05,.05-.1,.07-.15,.34-1.13,.53-2.15,1.09-2.78,.25-.24,.68-.36,1.16-.35,.04,0,.07,0,.11,0,1.63-.19,3.1-.77,4.5-1.27,.02,0,.03-.01,.05-.02,.52-.22,1.29-.48,1.82-1.22,0,0,0,0,0,0h0c.45-.62,.24-1.46-.39-1.85h0s-.04-.03-.06-.04c0,0,0,0-.01,0h0c-.76-.48-1.51-.54-1.99-.72,0,0-.02,0-.03,0-3.24-1.03-6.04-3.24-8.13-5.94-1.16-1.5-2.14-3.13-2.79-4.88,0,0,0-.01,0-.02-.25-.76-.27-1.58,.11-2.08,0,0,0,0,.01-.01,.59-.83,1.66-1.37,2.8-1.79,0,0,0,0,.01,0,1.27-.44,2.65-.94,3.79-1.95,0,0,0,0,.01-.01,.18-.17,.39-.38,.55-.7s.23-.82,.02-1.26h0c-.33-.68-.9-1.02-1.33-1.27h0c-.72-.41-1.55-.44-2.27-.21,0,0,0,0,0,0,0,0,0,0-.01,0-.78,.24-1.42,.52-2.01,.59-.01,0-.03,0-.04,0-.84,.15-1.66,.18-2.29-.05,0-.09,0-.28-.03-.5h0c-.05-1.38,.07-2.81,.09-4.28,0,0,0,0,0,0,.06-2.24,.16-4.55-.18-6.87,0-.01,0-.02,0-.03-.72-3.92-3.24-7.29-6.43-9.54-2.32-1.63-5.07-2.54-7.87-2.79,0,0,0,0,0,0-.94-.09-1.88-.13-2.81-.12h0Z" style="fill: #fff;"/>
</svg>