<svg xmlns="http://www.w3.org/2000/svg" id="Layer_1" data-name="Layer 1" viewBox="0 0 99.03 99.02"><path d="M99.03,49.51c0,27.35-22.17,49.52-49.51,49.52S0,76.86,0,49.51,22.17,0,49.52,0s49.51,22.17,49.51,49.51Z" style="fill:#a7aaad"/><g><path d="M40.75,80.45c3.86-.16,5.31-2.54,9.96-2.54s5.97,2.54,10.04,2.46c4.14-.08,6.77-3.83,9.3-7.6,2.93-4.36,4.14-8.59,4.21-8.8-.09-.04-8.08-3.16-8.16-12.52-.08-7.84,6.28-11.6,6.57-11.79-3.57-5.32-9.14-6.05-11.12-6.13-4.73-.49-9.24,2.84-11.64,2.84s-6.11-2.77-10.04-2.7c-5.16,.08-9.92,3.06-12.58,7.76-5.36,9.47-1.37,23.5,3.86,31.19,2.55,3.76,5.6,7.98,9.6,7.83Z" style="fill:#fff"/><path d="M52.66,23.25c-1.96,2.32-3.69,6.02-3.23,9.58,3.42,.27,6.9-1.77,9.02-4.38,2.12-2.62,3.55-6.26,3.16-9.88-3.06,.13-6.76,2.07-8.96,4.68Z" style="fill:#fff"/></g><path d="M99.03,49.51c0,27.35-22.17,49.52-49.51,49.52S0,76.86,0,49.51,22.17,0,49.52,0s49.51,22.17,49.51,49.51Z" style="fill:#a7aaad"/><g><path d="M40.75,80.45c3.86-.16,5.31-2.54,9.96-2.54s5.97,2.54,10.04,2.46c4.14-.08,6.77-3.83,9.3-7.6,2.93-4.36,4.14-8.59,4.21-8.8-.09-.04-8.08-3.16-8.16-12.52-.08-7.84,6.28-11.6,6.57-11.79-3.57-5.32-9.14-6.05-11.12-6.13-4.73-.49-9.24,2.84-11.64,2.84s-6.11-2.77-10.04-2.7c-5.16,.08-9.92,3.06-12.58,7.76-5.36,9.47-1.37,23.5,3.86,31.19,2.55,3.76,5.6,7.98,9.6,7.83Z" style="fill:#fff"/><path d="M52.66,23.25c-1.96,2.32-3.69,6.02-3.23,9.58,3.42,.27,6.9-1.77,9.02-4.38,2.12-2.62,3.55-6.26,3.16-9.88-3.06,.13-6.76,2.07-8.96,4.68Z" style="fill:#fff"/></g><path d="M99.03,49.51c0,27.35-22.17,49.52-49.51,49.52S0,76.86,0,49.51,22.17,0,49.52,0s49.51,22.17,49.51,49.51Z" style="fill:#a7aaad"/><g><path d="M40.75,80.45c3.86-.16,5.31-2.54,9.96-2.54s5.97,2.54,10.04,2.46c4.14-.08,6.77-3.83,9.3-7.6,2.93-4.36,4.14-8.59,4.21-8.8-.09-.04-8.08-3.16-8.16-12.52-.08-7.84,6.28-11.6,6.57-11.79-3.57-5.32-9.14-6.05-11.12-6.13-4.73-.49-9.24,2.84-11.64,2.84s-6.11-2.77-10.04-2.7c-5.16,.08-9.92,3.06-12.58,7.76-5.36,9.47-1.37,23.5,3.86,31.19,2.55,3.76,5.6,7.98,9.6,7.83Z" style="fill:#fff"/><path d="M52.66,23.25c-1.96,2.32-3.69,6.02-3.23,9.58,3.42,.27,6.9-1.77,9.02-4.38,2.12-2.62,3.55-6.26,3.16-9.88-3.06,.13-6.76,2.07-8.96,4.68Z" style="fill:#fff"/></g></svg>