<?xml version="1.0" encoding="UTF-8"?>
<svg id="Layer_1" data-name="Layer 1" xmlns="http://www.w3.org/2000/svg" viewBox="0 0 100 100">
  <path d="M100,50c0,27.62-22.39,50-50,50S0,77.61,0,50,22.39,0,50,0s50,22.38,50,50Z" style="fill: #00a2f4;"/>
  <g id="g18086">
    <g id="bag">
      <g id="handles">
        <path id="path205" d="M46.91,24.51c-2.74,.95-4.74,1.76-4.74,6.91v2.48l1.64-.33v-2.14c-.04-3.49,.88-4.22,3.28-5.24-.01-.66-.07-1.22-.18-1.68h0Z" style="fill: #fff;"/>
        <path id="path207" d="M51.68,23.41c.11,.5,.2,1.04,.25,1.62,4.29-.61,4.21,1.13,4.21,4.77v1.34l1.62-.33v-1.02c0-5.65-.9-7.16-6.08-6.39Z" style="fill: #fff;"/>
        <path id="path209" d="M34.79,35.35v-7.42c-.05-4.6,2.36-6.01,6.82-7.04,6.71-1.55,7.14,2.71,7.14,5.42v6.29l1.64-.33v-5.83c-.02-5.13-1.64-8.97-9.11-7.3-4.02,.9-8.13,1.91-8.13,8.63v7.9l1.64-.32h0Z" style="fill: #fff;"/>
      </g>
      <path id="path211" d="M65.98,31.16l-45.14,8.89v32.32l45.14,8.89,9.02-3.23V34.39l-9.02-3.23h0Zm-25.42,34.52l-10.02-1.39v-8.19h10.02v9.58Zm0-10.82h-10.02v-7.53l10.02-1.39v8.92Zm13.89,12.71l-12.63-1.82v-9.65h12.63v11.47Zm0-12.71h-12.63v-8.99l12.63-1.82v10.81Z" style="fill: #fff;"/>
    </g>
  </g>
</svg>