<?xml version="1.0" encoding="UTF-8"?>
<svg id="b" data-name="Capa 2" xmlns="http://www.w3.org/2000/svg" viewBox="0 0 723.3787 401.8132">
  <defs>
    <style>
      .d {
        fill: #032b44;
      }
    </style>
  </defs>
  <g id="c" data-name="Capa 2">
    <g>
      <g>
        <g>
          <path class="d" d="M29.7092,201.5437c3.4197,0,6.4453,1.249,9.0837,3.7402,2.6348,2.4941,3.9541,5.5938,3.9541,9.2979v123.5381c0,3.707-1.356,6.8066-4.061,9.2979-2.7085,2.4941-5.8442,3.7402-9.4043,3.7402-3.991,0-7.197-1.2461-9.6182-3.7402-2.4246-2.4912-3.6335-5.5908-3.6335-9.2979v-123.5381c0-3.7041,1.2825-6.8037,3.8474-9.2979,2.5647-2.4912,5.8408-3.7402,9.8318-3.7402Zm-.6414,62.1963H124.3938v24.5801H29.0679v-24.5801Zm95.3259-62.1963c3.9875,0,7.1934,1.249,9.6179,3.7402,2.4214,2.4941,3.6335,5.5938,3.6335,9.2979v123.5381c0,3.707-1.249,6.8066-3.7402,9.2979-2.4949,2.4941-5.8076,3.7402-9.9387,3.7402-3.4197,0-6.4487-1.2461-9.0837-3.7402-2.6384-2.4912-3.9541-5.5908-3.9541-9.2979v-123.5381c0-3.7041,1.3525-6.8037,4.061-9.2979,2.7051-2.4912,5.8408-3.7402,9.4043-3.7402Z"/>
          <path class="d" d="M217.1533,353.2956c-12.1128,0-22.6226-2.5283-31.5259-7.5879-8.9067-5.0566-15.7461-11.9326-20.5186-20.625-4.7756-8.6904-7.1602-18.5215-7.1602-29.4961,0-12.8242,2.5984-23.7578,7.8015-32.8086,5.1997-9.0469,12.0024-15.9932,20.4116-20.8389,8.4058-4.8418,17.3125-7.2666,26.7168-7.2666,7.2671,0,14.1399,1.4961,20.6255,4.4883,6.4822,2.9922,12.2163,7.0898,17.2056,12.29,4.9861,5.2031,8.9402,11.2207,11.8623,18.0605,2.9189,6.8389,4.3816,14.1064,4.3816,21.8008-.1436,3.4199-1.4961,6.1982-4.061,8.3359-2.5647,2.1367-5.5571,3.2061-8.9768,3.2061h-81.6467l-6.4121-21.374h78.4409l-4.7024,4.2744v-5.7705c-.2871-4.1309-1.7466-7.835-4.3813-11.1143-2.6384-3.2764-5.9146-5.8779-9.832-7.8008-3.9207-1.9238-8.0884-2.8857-12.5034-2.8857-4.2747,0-8.2654,.5713-11.9692,1.71-3.7068,1.1416-6.9128,3.0654-9.6179,5.7705-2.7085,2.709-4.8457,6.3418-6.4121,10.9004-1.5696,4.5625-2.3511,10.333-2.3511,17.3125,0,7.6943,1.603,14.2139,4.8091,19.5566,3.2061,5.3438,7.3372,9.4043,12.3965,12.1836,5.0564,2.7783,10.4363,4.168,16.1372,4.168,5.2698,0,9.4744-.4277,12.6104-1.2832,3.1326-.8545,5.6638-1.8867,7.5874-3.0986,1.9238-1.209,3.667-2.2441,5.2366-3.0996,2.5649-1.2822,4.9861-1.9238,7.2671-1.9238,3.1326,0,5.7341,1.0693,7.8013,3.2061,2.064,2.1377,3.0991,4.6328,3.0991,7.4814,0,3.8467-1.9971,7.3398-5.9846,10.4727-3.707,3.1357-8.9067,5.8779-15.6025,8.2285-6.6992,2.3516-13.6089,3.5273-20.7324,3.5273Z"/>
          <path class="d" d="M312.9058,338.1199c0,3.707-1.249,6.8066-3.7402,9.2979-2.4946,2.4941-5.594,3.7402-9.2976,3.7402-3.5632,0-6.5557-1.2461-8.9768-3.7402-2.4246-2.4912-3.6335-5.5908-3.6335-9.2979V206.032c0-3.7041,1.2458-6.8027,3.7405-9.2979,2.4912-2.4912,5.5906-3.7402,9.2974-3.7402,3.7036,0,6.7327,1.249,9.0837,3.7402,2.3511,2.4951,3.5266,5.5938,3.5266,9.2979v132.0879Z"/>
          <path class="d" d="M397.7563,234.6726c9.9719,0,18.9155,2.5312,26.8237,7.5869,7.9082,5.0596,14.1765,12.0068,18.8086,20.8398,4.6287,8.8359,6.9465,19.0957,6.9465,30.7773s-2.3179,21.9814-6.9465,30.8848c-4.6321,8.9072-10.8303,15.8896-18.595,20.9463-7.7678,5.0596-16.4944,7.5879-26.1824,7.5879-5.7009,0-11.0442-.9287-16.0303-2.7793-4.9893-1.8496-9.3708-4.2012-13.1445-7.0527-3.7771-2.8486-6.6995-5.7344-8.7632-8.6562-2.0674-2.9189-3.0991-5.377-3.0991-7.374l6.6257-2.7783v56.2119c0,3.7041-1.2124,6.8027-3.6335,9.2979-2.4246,2.4912-5.4871,3.7402-9.1907,3.7402-3.7068,0-6.7693-1.2119-9.1904-3.6338-2.4246-2.4248-3.6335-5.5566-3.6335-9.4043V249.8474c0-3.7031,1.209-6.8027,3.6335-9.2969,2.4211-2.4922,5.4836-3.7412,9.1904-3.7412,3.7036,0,6.7661,1.249,9.1907,3.7412,2.4211,2.4941,3.6335,5.5938,3.6335,9.2969v10.4736l-3.6335-1.9238c0-1.8506,.9951-4.0947,2.9922-6.7324,1.9939-2.6357,4.7024-5.2705,8.1221-7.9082,3.4197-2.6357,7.3738-4.8096,11.8623-6.5195,4.4883-1.71,9.2239-2.5645,14.2134-2.5645Zm-3.2061,23.5107c-6.2717,0-11.7554,1.5693-16.4575,4.7021-4.7021,3.1357-8.3726,7.374-11.0076,12.7168-2.6382,5.3438-3.9541,11.4355-3.9541,18.2744,0,6.6992,1.3159,12.791,3.9541,18.2744,2.635,5.4873,6.3054,9.7988,11.0076,12.9316,4.7021,3.1357,10.1858,4.7021,16.4575,4.7021,6.2683,0,11.7188-1.5664,16.3506-4.7021,4.6289-3.1328,8.2622-7.4443,10.9006-12.9316,2.635-5.4834,3.9541-11.5752,3.9541-18.2744,0-6.8389-1.3191-12.9307-3.9541-18.2744-2.6384-5.3428-6.2717-9.5811-10.9006-12.7168-4.6318-3.1328-10.0823-4.7021-16.3506-4.7021Z"/>
        </g>
        <g>
          <path class="d" d="M563.0796,203.0398l52.7925-1.0684-1.4961,9.1904-21.1599,4.916,2.9924-3.2061-13.0378,82.2871c-1.9971,12.8242-5.4502,23.5479-10.3662,32.168-4.9158,8.6221-11.5784,15.0684-19.9841,19.3428-8.4092,4.2744-19.0959,6.4121-32.0603,6.4121-15.8164,0-27.3948-3.3467-34.7319-10.0459-7.3403-6.6953-11.0073-16.7412-11.0073-30.1367,0-2.4209,.1069-5.0225,.3206-7.8008,.2139-2.7793,.6045-5.6641,1.1755-8.6562l13.2517-83.5703,2.1372,2.9922-19.6636-3.6338,1.4961-9.1904,52.1514-1.0684-1.4961,9.1904-20.3049,4.916,2.7786-3.2061-13.4653,84.6387c-.4272,2.8516-.7847,5.5234-1.0686,8.0146-.2871,2.4951-.4275,4.8828-.4275,7.1602,0,9.1211,2.2776,15.8164,6.8396,20.0918,4.5586,4.2744,12.1829,6.4121,22.8696,6.4121,9.9722,0,17.917-1.7441,23.8315-5.2373,5.9109-3.4893,10.4729-8.582,13.679-15.2812,3.2061-6.6963,5.5906-14.8887,7.1602-24.5801l12.824-81.2188,2.3511,2.9922-19.6636-3.6338,1.2825-9.1904Z"/>
          <path class="d" d="M590.8652,400.3171l1.4961-9.1904,24.7932-5.9854-8.3357,8.9775,23.0835-145.5537,2.5647,3.6338-19.4497-4.0615,1.4961-9.1904,32.915-1.2822-7.6943,43.1748-4.7021,6.8389c3.4197-11.6816,7.9783-21.3369,13.679-28.9609,5.6973-7.6211,11.9324-13.252,18.7019-16.8848,6.7659-3.6338,13.2148-5.4502,19.343-5.4502,5.4133,0,10.366,1.4258,14.8545,4.2744,4.4885,2.8516,8.0852,7.374,10.7937,13.5723,2.7051,6.1982,4.0608,14.3564,4.0608,24.4727,0,13.6787-2.3511,25.7217-7.0532,36.1211-4.7021,10.4033-11.3279,18.7754-19.8772,25.1143-8.5496,6.3418-18.7019,10.332-30.4573,11.9688s-24.6162,.6045-38.5791-3.0996l10.2593-1.2822-7.4807,47.0225-5.9846-9.6182,25.4343,6.1982-1.4961,9.1904h-52.365Zm42.7468-58.7773l-3.6333-5.7705c10.8269,3.707,20.6252,4.9521,29.3884,3.7402,8.7632-1.209,16.2773-4.3818,22.5491-9.5117,6.2686-5.1289,11.0774-11.9316,14.427-20.4111,3.3464-8.4766,5.0229-18.2744,5.0229-29.3887,0-10.6865-1.7834-18.3809-5.3435-23.083-3.5632-4.7021-8.0518-7.0537-13.4653-7.0537-3.8472,0-7.9817,1.1758-12.3965,3.5264-4.4185,2.3516-8.7297,5.8779-12.9309,10.5801-4.2046,4.7021-7.9082,10.6533-11.1143,17.8467-3.2061,7.1973-5.5237,15.71-6.9465,25.542l-5.5571,33.9834Z"/>
        </g>
      </g>
      <g>
        <path class="d" d="M510.7073,136.7035c20.6928-20.6928,20.9353-53.354,.2425-74.0468L451.4713,3.1782c-3.2142-3.2129-8.162-4.7425-11.9769-.9311-4.0713,4.0725-2.3445,8.7011,.6292,11.676l33.3832,33.3843c1.8237,1.8225,1.8237,4.7791,0,6.6016-1.8214,1.8237-4.7803,1.8237-6.6016,0L416.3921,3.3972c-1.7359-1.737-4.0451-2.6933-6.5013-2.6933-2.4562,0-4.7654,.9563-6.5025,2.6933-3.5846,3.5858-3.5846,9.418,0,13.0038l43.8339,43.8339,5.4676,5.4676c1.8237,1.8225,1.8237,4.7791,0,6.6016-.9107,.9118-2.1063,1.3677-3.3008,1.3677s-2.3901-.4559-3.3008-1.3677l-5.4676-5.4676-43.8339-43.8339-6.678-6.678c-3.5858-3.5835-9.4192-3.5835-13.005,0-3.5846,3.5858-3.5846,9.4192,0,13.005l10.5815,10.5815,.0117,.0105,43.2833,43.2845c1.8237,1.8225,1.8237,4.7791,0,6.6016-.9107,.9118-2.1063,1.3677-3.3008,1.3677h-.0006c-1.1948,0-2.3896-.4559-3.3002-1.3677l-43.2833-43.2833c-3.5858-3.5858-9.4203-3.5846-13.0038-.0011-3.5858,3.5858-3.5858,9.4192-.0011,13.005l48.9241,48.9241,.0028,.0037,20.2238,20.2229c.008,.0077,.0128,.0171,.0205,.0251,.1573,.1599,.2912,.3385,.4237,.5183,.051,.0695,.1151,.1319,.1618,.2035,.1051,.161,.1838,.3371,.2687,.5101,.094,.1929,.1744,.3878,.2405,.5896,.1006,.3038,.167,.6172,.2032,.9403,.0194,.1744,.0487,.3476,.0484,.5229-.0003,.0909-.0208,.1838-.0265,.2755-.0131,.2174-.0268,.4345-.0704,.6488-.0023,.0111-.0014,.0222-.0037,.0333-.053,.2496-.1299,.4873-.2191,.7178-.0148,.0385-.0276,.0767-.0436,.1145-.1063,.2553-.2348,.4967-.3813,.724-.0436,.0678-.0989,.1294-.1465,.1955-.1257,.1744-.2579,.3417-.4049,.4958-.0262,.0274-.0439,.0596-.071,.0866-.0459,.0459-.1003,.0769-.1476,.1208-.1419,.1302-.2889,.2516-.4451,.3636-.0912,.0653-.1821,.1282-.277,.1861-.1527,.0937-.3114,.1741-.4742,.2499-.098,.045-.1932,.0946-.2932,.1328-.1895,.0727-.3858,.1259-.5847,.1735-.0755,.018-.1485,.045-.2243,.059-.2781,.0521-.5613,.0832-.8503,.0832-.0237,0-.0482-.0074-.0721-.0077-.2904-.004-.5804-.0333-.8662-.0915-.0111-.0023-.0217-.0011-.0328-.0034l-32.7734-6.9362c-6.3232-.8782-12.1641,3.504-13.0859,9.8084-.9266,6.3326,3.4706,12.2379,9.8022,13.1645,.0205,.0028,.0388,.0117,.0593,.0148,.0214,.0034,.0422,.0009,.0638,.0046l57.0231,10.2061c10.281,1.4869,30.5576-.0184,41.9887-11.4495l14.6558-14.6562Z"/>
        <path class="d" d="M212.6759,136.7035c-20.6928-20.6928-20.9353-53.354-.2425-74.0468L271.9119,3.1782c3.2142-3.2129,8.162-4.7425,11.9769-.9311,4.0713,4.0725,2.3445,8.7011-.6292,11.676l-33.3832,33.3843c-1.8237,1.8225-1.8237,4.7791,0,6.6016,1.8214,1.8237,4.7803,1.8237,6.6016,0L306.9911,3.3972c1.7359-1.737,4.0451-2.6933,6.5013-2.6933,2.4562,0,4.7654,.9563,6.5025,2.6933,3.5846,3.5858,3.5846,9.418,0,13.0038l-43.8339,43.8339-5.4676,5.4676c-1.8237,1.8225-1.8237,4.7791,0,6.6016,.9107,.9118,2.1063,1.3677,3.3008,1.3677s2.3901-.4559,3.3008-1.3677l5.4676-5.4676,43.8339-43.8339,6.678-6.678c3.5858-3.5835,9.4192-3.5835,13.005,0,3.5846,3.5858,3.5846,9.4192,0,13.005l-10.5815,10.5815-.0117,.0105-43.2833,43.2845c-1.8237,1.8225-1.8237,4.7791,0,6.6016,.9107,.9118,2.1063,1.3677,3.3008,1.3677h.0006c1.1948,0,2.3896-.4559,3.3002-1.3677l43.2833-43.2833c3.5858-3.5858,9.4203-3.5846,13.0038-.0011,3.5858,3.5858,3.5858,9.4192,.0011,13.005l-48.9241,48.9241-.0028,.0037-20.2238,20.2229c-.008,.0077-.0128,.0171-.0205,.0251-.1573,.1599-.2912,.3385-.4237,.5183-.051,.0695-.1151,.1319-.1618,.2035-.1051,.161-.1838,.3371-.2687,.5101-.094,.1929-.1744,.3878-.2405,.5896-.1006,.3038-.167,.6172-.2032,.9403-.0194,.1744-.0487,.3476-.0484,.5229,.0003,.0909,.0208,.1838,.0265,.2755,.0131,.2174,.0268,.4345,.0704,.6488,.0023,.0111,.0014,.0222,.0037,.0333,.053,.2496,.1299,.4873,.2191,.7178,.0148,.0385,.0276,.0767,.0436,.1145,.1063,.2553,.2348,.4967,.3813,.724,.0436,.0678,.0989,.1294,.1465,.1955,.1257,.1744,.2579,.3417,.4049,.4958,.0262,.0274,.0439,.0596,.071,.0866,.0459,.0459,.1003,.0769,.1476,.1208,.1419,.1302,.2889,.2516,.4451,.3636,.0912,.0653,.1821,.1282,.277,.1861,.1527,.0937,.3114,.1741,.4742,.2499,.098,.045,.1932,.0946,.2932,.1328,.1895,.0727,.3858,.1259,.5847,.1735,.0755,.018,.1485,.045,.2243,.059,.2781,.0521,.5613,.0832,.8503,.0832,.0237,0,.0482-.0074,.0721-.0077,.2904-.004,.5804-.0333,.8662-.0915,.0111-.0023,.0217-.0011,.0328-.0034l32.7734-6.9362c6.3232-.8782,12.1641,3.504,13.0859,9.8084,.9266,6.3326-3.4706,12.2379-9.8022,13.1645-.0205,.0028-.0388,.0117-.0593,.0148-.0214,.0034-.0422,.0009-.0638,.0046l-57.0231,10.2061c-10.281,1.4869-30.5576-.0184-41.9887-11.4495l-14.6558-14.6562Z"/>
      </g>
    </g>
  </g>
</svg>